<?xml version="1.0" encoding="utf-8"?>
<svg xmlns="http://www.w3.org/2000/svg" viewBox="22.811 22.811 978.3781 978.3781" width="978.378px" height="978.378px"><path d="M 1001.189 512 C 1001.189 782.172 782.172 1001.189 512 1001.189 C 241.828 1001.189 22.811 782.172 22.811 512 C 22.811 241.828 241.828 22.811 512 22.811 C 782.172 22.811 1001.189 241.828 1001.189 512 Z M 228 339.388 C 228 356.734 237.945 485.101 243.778 505.943 C 264.053 578.396 337.933 596.876 403.653 585.691 C 288.778 605.242 259.556 670.002 322.667 734.762 C 442.527 857.754 494.939 703.903 508.369 664.481 C 510.831 657.254 511.983 653.873 512 656.748 C 512.017 653.873 513.169 657.254 515.631 664.481 C 529.061 703.903 581.473 857.754 701.333 734.762 C 764.444 670.002 735.222 605.242 620.347 585.691 C 686.067 596.876 759.947 578.396 780.222 505.943 C 786.055 485.101 796 356.734 796 339.388 C 796 252.536 719.866 279.83 672.879 315.106 C 607.759 363.994 537.719 463.123 512 516.315 C 486.281 463.123 416.241 363.994 351.121 315.106 C 304.134 279.83 228 252.536 228 339.388 Z" style="stroke: rgb(0, 0, 0); fill: rgb(208, 206, 204); fill-rule: nonzero;" id="object-0"/></svg>